<svg xmlns="http://www.w3.org/2000/svg" viewBox="0 0 48 48" fill="none" stroke="#2C3E50" stroke-width="2" stroke-linecap="round" stroke-linejoin="round">
  <!-- Heart shape -->
  <path d="M24 40 C24 40 6 28 6 17 C6 11 10.5 7 15.5 7 C19 7 22 9 24 12 C26 9 29 7 32.5 7 C37.5 7 42 11 42 17 C42 28 24 40 24 40 Z" />
  <!-- Dollar sign vertical bar -->
  <line x1="24" y1="14" x2="24" y2="32" />
  <!-- Dollar sign top curve -->
  <path d="M28 17 C28 15 26 14 24 14 C22 14 19 15.5 19 18 C19 20.5 21 21.5 24 22.5 C27 23.5 29 24.5 29 27 C29 29.5 26.5 31 24 31 C21.5 31 19 30 19 28" />
</svg>
